# xmcd
#
# Track frame offsets:
#	150
#	13720
#	29557
#	48391
#	64741
#	79957
#	96820
#	116816
#	132788
#	152757
#	169189
#	187645
#
# Disc length: 2729 seconds
#
# Revision: 1
# Processed by: cddbd v1.5.1PL0 Copyright (c) Steve Scherf et al.
# Submitted via: EasyCDDAExtractor 7.1.0.1
#
DISCID=980aa70c
DTITLE=TUS GUARDIANES - DE AQUI A LA LUNA
DYEAR=2004
DGENRE=CUMBIA
TTITLE0=DE AQUI A LA LUNA
TTITLE1=ERES TU
TTITLE2=NO VALE AL PENA
TTITLE3=VIVO ENAMORADO
TTITLE4=ME ENAMORÉ DE UN ANGEL
TTITLE5=AHI ESTARE
TTITLE6=ESPERANDO EN SOLEDAD
TTITLE7=SI TU ME AMARAS COMO YO
TTITLE8=BASTA
TTITLE9=SI TU NO ESTAS
TTITLE10=BONUS TRACK- UN SIGLO SIN TI
TTITLE11=Pista12
EXTD=
EXTT0=
EXTT1=
EXTT2=
EXTT3=
EXTT4=
EXTT5=
EXTT6=
EXTT7=
EXTT8=
EXTT9=
EXTT10=
EXTT11=
PLAYORDER=
